<svg width="162" height="79" viewBox="0 0 162 79" fill="none" xmlns="http://www.w3.org/2000/svg">
<path d="M11.5781 31.9453H13.9219C16.2188 31.9453 17.9141 31.5625 19.0078 30.7969C20.1016 30.0312 20.6484 28.8281 20.6484 27.1875C20.6484 25.5625 20.0859 24.4062 18.9609 23.7188C17.8516 23.0312 16.125 22.6875 13.7812 22.6875H11.5781V31.9453ZM11.5781 37.8516V51H4.3125V16.7344H14.2969C18.9531 16.7344 22.3984 17.5859 24.6328 19.2891C26.8672 20.9766 27.9844 23.5469 27.9844 27C27.9844 29.0156 27.4297 30.8125 26.3203 32.3906C25.2109 33.9531 23.6406 35.1797 21.6094 36.0703C26.7656 43.7734 30.125 48.75 31.6875 51H23.625L15.4453 37.8516H11.5781ZM63.8906 16.7344V38.9062C63.8906 41.4375 63.3203 43.6562 62.1797 45.5625C61.0547 47.4688 59.4219 48.9297 57.2812 49.9453C55.1406 50.9609 52.6094 51.4688 49.6875 51.4688C45.2812 51.4688 41.8594 50.3438 39.4219 48.0938C36.9844 45.8281 35.7656 42.7344 35.7656 38.8125V16.7344H43.0078V37.7109C43.0078 40.3516 43.5391 42.2891 44.6016 43.5234C45.6641 44.7578 47.4219 45.375 49.875 45.375C52.25 45.375 53.9688 44.7578 55.0312 43.5234C56.1094 42.2734 56.6484 40.3203 56.6484 37.6641V16.7344H63.8906ZM99.8438 51H91.5938L82.6172 36.5625L79.5469 38.7656V51H72.2812V16.7344H79.5469V32.4141L82.4062 28.3828L91.6875 16.7344H99.75L87.7969 31.8984L99.8438 51ZM131.719 51H123.469L114.492 36.5625L111.422 38.7656V51H104.156V16.7344H111.422V32.4141L114.281 28.3828L123.562 16.7344H131.625L119.672 31.8984L131.719 51ZM146.695 30.8438L153.844 16.7344H161.672L150.305 37.6641V51H143.086V37.8984L131.719 16.7344H139.594L146.695 30.8438Z" fill="#0FBF6B"/>
<path d="M7.57 70.644C7.426 70.332 7.264 70.122 7.084 70.014C6.904 69.906 6.694 69.852 6.454 69.852H6.436H4.528V75H2.8V62.4H6.436C7.156 62.4 7.786 62.502 8.326 62.706C8.866 62.898 9.31 63.168 9.658 63.516C10.018 63.852 10.288 64.248 10.468 64.704C10.648 65.16 10.738 65.652 10.738 66.18C10.738 66.96 10.552 67.638 10.18 68.214C9.82 68.79 9.274 69.222 8.542 69.51C8.71 69.63 8.842 69.768 8.938 69.924C9.046 70.068 9.136 70.212 9.208 70.356L11.458 75H9.568L7.57 70.644ZM4.528 63.804V68.448H6.436C6.952 68.448 7.378 68.382 7.714 68.25C8.05 68.106 8.314 67.926 8.506 67.71C8.71 67.494 8.854 67.248 8.938 66.972C9.022 66.696 9.064 66.414 9.064 66.126C9.064 65.85 9.022 65.574 8.938 65.298C8.854 65.022 8.71 64.776 8.506 64.56C8.314 64.332 8.05 64.152 7.714 64.02C7.378 63.876 6.952 63.804 6.436 63.804H4.528ZM17.7279 73.866C18.3399 73.866 18.8679 73.752 19.3119 73.524C19.7679 73.284 20.1339 73.032 20.4099 72.768L21.1839 73.704C20.8119 74.124 20.3259 74.49 19.7259 74.802C19.1259 75.114 18.4419 75.27 17.6739 75.27C17.0379 75.27 16.4499 75.168 15.9099 74.964C15.3699 74.748 14.9019 74.43 14.5059 74.01C14.1219 73.578 13.8159 73.05 13.5879 72.426C13.3719 71.79 13.2639 71.058 13.2639 70.23C13.2639 69.402 13.3719 68.676 13.5879 68.052C13.8039 67.416 14.1039 66.888 14.4879 66.468C14.8719 66.036 15.3219 65.718 15.8379 65.514C16.3659 65.298 16.9359 65.19 17.5479 65.19C18.1119 65.19 18.6279 65.28 19.0959 65.46C19.5759 65.628 19.9839 65.892 20.3199 66.252C20.6559 66.612 20.9139 67.062 21.0939 67.602C21.2859 68.13 21.3819 68.754 21.3819 69.474V70.734H15.0819C15.1539 71.802 15.4299 72.594 15.9099 73.11C16.4019 73.614 17.0079 73.866 17.7279 73.866ZM17.5659 66.594C16.9179 66.594 16.3659 66.834 15.9099 67.314C15.4659 67.782 15.1959 68.502 15.0999 69.474H19.6719C19.6719 68.55 19.4859 67.842 19.1139 67.35C18.7539 66.846 18.2379 66.594 17.5659 66.594ZM27.2467 66.504C26.7907 66.504 26.4067 66.606 26.0947 66.81C25.7827 67.014 25.6267 67.326 25.6267 67.746C25.6267 68.082 25.7467 68.364 25.9867 68.592C26.2267 68.808 26.5267 69.006 26.8867 69.186C27.2467 69.366 27.6307 69.546 28.0387 69.726C28.4587 69.906 28.8487 70.122 29.2087 70.374C29.5687 70.614 29.8687 70.914 30.1087 71.274C30.3487 71.622 30.4687 72.066 30.4687 72.606C30.4687 73.41 30.1747 74.058 29.5867 74.55C28.9987 75.03 28.1827 75.27 27.1387 75.27C26.1067 75.27 25.3147 75.03 24.7627 74.55C24.2227 74.058 23.8507 73.38 23.6467 72.516L25.1407 72.012C25.2007 72.408 25.2967 72.732 25.4287 72.984C25.5727 73.236 25.7407 73.434 25.9327 73.578C26.1247 73.722 26.3347 73.824 26.5627 73.884C26.7907 73.932 27.0247 73.956 27.2647 73.956C27.6727 73.956 28.0327 73.86 28.3447 73.668C28.6567 73.464 28.8127 73.152 28.8127 72.732C28.8127 72.42 28.6927 72.162 28.4527 71.958C28.2127 71.754 27.9127 71.562 27.5527 71.382C27.1927 71.202 26.8027 71.022 26.3827 70.842C25.9747 70.65 25.5907 70.422 25.2307 70.158C24.8707 69.894 24.5707 69.576 24.3307 69.204C24.0907 68.82 23.9707 68.346 23.9707 67.782C23.9707 67.506 24.0247 67.218 24.1327 66.918C24.2407 66.606 24.4207 66.324 24.6727 66.072C24.9367 65.82 25.2787 65.61 25.6987 65.442C26.1307 65.274 26.6587 65.19 27.2827 65.19C28.1107 65.19 28.7947 65.376 29.3347 65.748C29.8867 66.108 30.2827 66.72 30.5227 67.584L29.0287 68.088C28.8967 67.596 28.6807 67.212 28.3807 66.936C28.0807 66.648 27.7027 66.504 27.2467 66.504ZM32.3826 65.46H33.7506V63.48L35.1186 63.12H35.4786V65.46H37.9986V66.72H35.4786V72.948C35.4786 73.524 35.7606 73.812 36.3246 73.812C36.6966 73.812 37.1586 73.644 37.7106 73.308L38.1786 74.388C37.8186 74.664 37.4106 74.88 36.9546 75.036C36.5106 75.192 36.0906 75.27 35.6946 75.27C35.0586 75.27 34.5726 75.06 34.2366 74.64C33.9126 74.208 33.7506 73.584 33.7506 72.768V66.72H32.3826V65.46ZM43.3709 66.594C42.3629 66.594 41.7089 67.092 41.4089 68.088L39.9149 67.584C40.3949 65.988 41.5469 65.19 43.3709 65.19C44.6309 65.19 45.5369 65.508 46.0889 66.144C46.6529 66.768 46.9349 67.794 46.9349 69.222V73.47C46.9349 73.662 46.9769 73.794 47.0609 73.866C47.1569 73.926 47.2709 73.956 47.4029 73.956C47.4989 73.956 47.6009 73.944 47.7089 73.92C47.8169 73.884 47.9189 73.842 48.0149 73.794L48.3029 74.91C48.1109 75.006 47.9009 75.09 47.6729 75.162C47.4449 75.234 47.1929 75.27 46.9169 75.27C46.4849 75.27 46.1189 75.168 45.8189 74.964C45.5309 74.748 45.3569 74.34 45.2969 73.74C45.1169 73.932 44.9129 74.124 44.6849 74.316C44.4569 74.496 44.2049 74.658 43.9289 74.802C43.6649 74.946 43.3769 75.06 43.0649 75.144C42.7649 75.228 42.4469 75.27 42.1109 75.27C41.7509 75.27 41.4089 75.198 41.0849 75.054C40.7729 74.922 40.5029 74.736 40.2749 74.496C40.0469 74.256 39.8669 73.974 39.7349 73.65C39.6029 73.314 39.5369 72.954 39.5369 72.57C39.5369 71.586 39.8669 70.818 40.5269 70.266C41.1989 69.714 42.1229 69.438 43.2989 69.438C43.6229 69.438 43.9469 69.462 44.2709 69.51C44.5949 69.558 44.9069 69.63 45.2069 69.726V68.592C45.2069 67.968 45.0449 67.482 44.7209 67.134C44.3969 66.774 43.9469 66.594 43.3709 66.594ZM42.6329 73.866C43.0889 73.866 43.5329 73.758 43.9649 73.542C44.4089 73.314 44.8229 73.008 45.2069 72.624V70.878C44.9549 70.794 44.6849 70.728 44.3969 70.68C44.1089 70.632 43.8269 70.608 43.5509 70.608C43.2509 70.608 42.9629 70.638 42.6869 70.698C42.4109 70.758 42.1649 70.86 41.9489 71.004C41.7449 71.148 41.5769 71.34 41.4449 71.58C41.3249 71.808 41.2649 72.09 41.2649 72.426C41.2649 72.822 41.3909 73.164 41.6429 73.452C41.8949 73.728 42.2249 73.866 42.6329 73.866ZM57.9578 73.47C57.9578 73.662 57.9998 73.794 58.0838 73.866C58.1798 73.926 58.2938 73.956 58.4258 73.956C58.5218 73.956 58.6238 73.944 58.7318 73.92C58.8398 73.884 58.9418 73.842 59.0378 73.794L59.3258 74.91C59.1338 75.006 58.9238 75.09 58.6958 75.162C58.4678 75.234 58.2158 75.27 57.9398 75.27C57.5198 75.27 57.1658 75.174 56.8778 74.982C56.5898 74.79 56.4098 74.43 56.3378 73.902C55.9658 74.262 55.5098 74.58 54.9698 74.856C54.4418 75.132 53.8178 75.27 53.0978 75.27C52.1498 75.27 51.4598 74.988 51.0278 74.424C50.5958 73.848 50.3798 73.014 50.3798 71.922V65.46H52.1078V71.94C52.1078 72.588 52.2218 73.074 52.4498 73.398C52.6778 73.71 53.0618 73.866 53.6018 73.866C54.1298 73.866 54.6098 73.77 55.0418 73.578C55.4738 73.386 55.8698 73.128 56.2298 72.804V65.46H57.9578V73.47ZM63.1271 65.46L63.2171 66.63C63.5891 66.21 64.0331 65.874 64.5491 65.622C65.0651 65.358 65.6111 65.214 66.1871 65.19L66.2771 66.486L66.0611 66.684C65.4971 66.696 64.9871 66.798 64.5311 66.99C64.0871 67.17 63.7091 67.422 63.3971 67.746V75H61.6691V65.46H63.1271ZM71.2674 66.594C70.2594 66.594 69.6054 67.092 69.3054 68.088L67.8114 67.584C68.2914 65.988 69.4434 65.19 71.2674 65.19C72.5274 65.19 73.4334 65.508 73.9854 66.144C74.5494 66.768 74.8314 67.794 74.8314 69.222V73.47C74.8314 73.662 74.8734 73.794 74.9574 73.866C75.0534 73.926 75.1674 73.956 75.2994 73.956C75.3954 73.956 75.4974 73.944 75.6054 73.92C75.7134 73.884 75.8154 73.842 75.9114 73.794L76.1994 74.91C76.0074 75.006 75.7974 75.09 75.5694 75.162C75.3414 75.234 75.0894 75.27 74.8134 75.27C74.3814 75.27 74.0154 75.168 73.7154 74.964C73.4274 74.748 73.2534 74.34 73.1934 73.74C73.0134 73.932 72.8094 74.124 72.5814 74.316C72.3534 74.496 72.1014 74.658 71.8254 74.802C71.5614 74.946 71.2734 75.06 70.9614 75.144C70.6614 75.228 70.3434 75.27 70.0074 75.27C69.6474 75.27 69.3054 75.198 68.9814 75.054C68.6694 74.922 68.3994 74.736 68.1714 74.496C67.9434 74.256 67.7634 73.974 67.6314 73.65C67.4994 73.314 67.4334 72.954 67.4334 72.57C67.4334 71.586 67.7634 70.818 68.4234 70.266C69.0954 69.714 70.0194 69.438 71.1954 69.438C71.5194 69.438 71.8434 69.462 72.1674 69.51C72.4914 69.558 72.8034 69.63 73.1034 69.726V68.592C73.1034 67.968 72.9414 67.482 72.6174 67.134C72.2934 66.774 71.8434 66.594 71.2674 66.594ZM70.5294 73.866C70.9854 73.866 71.4294 73.758 71.8614 73.542C72.3054 73.314 72.7194 73.008 73.1034 72.624V70.878C72.8514 70.794 72.5814 70.728 72.2934 70.68C72.0054 70.632 71.7234 70.608 71.4474 70.608C71.1474 70.608 70.8594 70.638 70.5834 70.698C70.3074 70.758 70.0614 70.86 69.8454 71.004C69.6414 71.148 69.4734 71.34 69.3414 71.58C69.2214 71.808 69.1614 72.09 69.1614 72.426C69.1614 72.822 69.2874 73.164 69.5394 73.452C69.7914 73.728 70.1214 73.866 70.5294 73.866ZM79.9143 65.46L80.0043 66.612C80.3763 66.24 80.8143 65.91 81.3183 65.622C81.8223 65.334 82.3863 65.19 83.0103 65.19C83.5743 65.19 84.0543 65.256 84.4503 65.388C84.8463 65.52 85.1643 65.73 85.4043 66.018C85.6563 66.294 85.8363 66.66 85.9443 67.116C86.0643 67.572 86.1243 68.124 86.1243 68.772V75H84.3963V68.592C84.3963 67.26 83.7903 66.594 82.5783 66.594C82.1583 66.594 81.7443 66.69 81.3363 66.882C80.9283 67.074 80.5443 67.338 80.1843 67.674V75H78.4563V65.46H79.9143ZM88.738 65.46H90.106V63.48L91.474 63.12H91.834V65.46H94.354V66.72H91.834V72.948C91.834 73.524 92.116 73.812 92.68 73.812C93.052 73.812 93.514 73.644 94.066 73.308L94.534 74.388C94.174 74.664 93.766 74.88 93.31 75.036C92.866 75.192 92.446 75.27 92.05 75.27C91.414 75.27 90.928 75.06 90.592 74.64C90.268 74.208 90.106 73.584 90.106 72.768V66.72H88.738V65.46ZM104.722 76.8H103.354V60.6H104.722V76.8ZM118.602 62.4C119.25 62.4 119.814 62.496 120.294 62.688C120.774 62.88 121.17 63.138 121.482 63.462C121.806 63.774 122.046 64.14 122.202 64.56C122.37 64.98 122.454 65.424 122.454 65.892C122.454 67.104 121.938 67.956 120.906 68.448C121.602 68.688 122.124 69.066 122.472 69.582C122.82 70.098 122.994 70.734 122.994 71.49C122.994 72.546 122.676 73.398 122.04 74.046C121.404 74.682 120.438 75 119.142 75H114.966V62.4H118.602ZM116.694 69.222V73.596H119.142C119.562 73.596 119.91 73.53 120.186 73.398C120.474 73.266 120.702 73.098 120.87 72.894C121.038 72.678 121.152 72.438 121.212 72.174C121.284 71.91 121.32 71.646 121.32 71.382C121.32 71.118 121.284 70.854 121.212 70.59C121.152 70.326 121.038 70.098 120.87 69.906C120.702 69.702 120.474 69.54 120.186 69.42C119.91 69.288 119.562 69.222 119.142 69.222H116.694ZM116.694 63.804V67.818H118.602C119.022 67.818 119.37 67.758 119.646 67.638C119.934 67.506 120.162 67.344 120.33 67.152C120.498 66.96 120.612 66.744 120.672 66.504C120.744 66.264 120.78 66.024 120.78 65.784C120.78 65.544 120.744 65.31 120.672 65.082C120.612 64.842 120.498 64.626 120.33 64.434C120.162 64.242 119.934 64.092 119.646 63.984C119.37 63.864 119.022 63.804 118.602 63.804H116.694ZM128.801 66.594C127.793 66.594 127.139 67.092 126.839 68.088L125.345 67.584C125.825 65.988 126.977 65.19 128.801 65.19C130.061 65.19 130.967 65.508 131.519 66.144C132.083 66.768 132.365 67.794 132.365 69.222V73.47C132.365 73.662 132.407 73.794 132.491 73.866C132.587 73.926 132.701 73.956 132.833 73.956C132.929 73.956 133.031 73.944 133.139 73.92C133.247 73.884 133.349 73.842 133.445 73.794L133.733 74.91C133.541 75.006 133.331 75.09 133.103 75.162C132.875 75.234 132.623 75.27 132.347 75.27C131.915 75.27 131.549 75.168 131.249 74.964C130.961 74.748 130.787 74.34 130.727 73.74C130.547 73.932 130.343 74.124 130.115 74.316C129.887 74.496 129.635 74.658 129.359 74.802C129.095 74.946 128.807 75.06 128.495 75.144C128.195 75.228 127.877 75.27 127.541 75.27C127.181 75.27 126.839 75.198 126.515 75.054C126.203 74.922 125.933 74.736 125.705 74.496C125.477 74.256 125.297 73.974 125.165 73.65C125.033 73.314 124.967 72.954 124.967 72.57C124.967 71.586 125.297 70.818 125.957 70.266C126.629 69.714 127.553 69.438 128.729 69.438C129.053 69.438 129.377 69.462 129.701 69.51C130.025 69.558 130.337 69.63 130.637 69.726V68.592C130.637 67.968 130.475 67.482 130.151 67.134C129.827 66.774 129.377 66.594 128.801 66.594ZM128.063 73.866C128.519 73.866 128.963 73.758 129.395 73.542C129.839 73.314 130.253 73.008 130.637 72.624V70.878C130.385 70.794 130.115 70.728 129.827 70.68C129.539 70.632 129.257 70.608 128.981 70.608C128.681 70.608 128.393 70.638 128.117 70.698C127.841 70.758 127.595 70.86 127.379 71.004C127.175 71.148 127.007 71.34 126.875 71.58C126.755 71.808 126.695 72.09 126.695 72.426C126.695 72.822 126.821 73.164 127.073 73.452C127.325 73.728 127.655 73.866 128.063 73.866ZM137.447 65.46L137.537 66.63C137.909 66.21 138.353 65.874 138.869 65.622C139.385 65.358 139.931 65.214 140.507 65.19L140.597 66.486L140.381 66.684C139.817 66.696 139.307 66.798 138.851 66.99C138.407 67.17 138.029 67.422 137.717 67.746V75H135.989V65.46H137.447Z" fill="white"/>
</svg>
